Adsworth-24PT G0 XT.ufo
<glyph name="quotedbl" format="2">
  <advance width="894"/>
  <unicode hex="0022"/>
  <outline>
    <contour>
      <point x="220" y="962" type="line"/>
      <point x="220" y="1500" type="line"/>
      <point x="260" y="1500" type="line"/>
      <point x="260" y="962" type="line"/>
    </contour>
    <contour>
      <point x="634" y="962" type="line"/>
      <point x="634" y="1500" type="line"/>
      <point x="674" y="1500" type="line"/>
      <point x="674" y="962" type="line"/>
    </contour>
  </outline>
</glyph>
<glyph name="dollar" format="2">
  <advance width="1160"/>
  <unicode hex="0024"/>
  <outline>
    <contour>
      <point x="1044" y="405.0" type="line" smooth="yes"/>
      <point x="1044.0" y="553.0"/>
      <point x="812" y="723"/>
      <point x="587" y="789" type="qcurve" smooth="yes"/>
      <point x="365" y="854"/>
      <point x="119" y="1020"/>
      <point x="119" y="1177" type="qcurve" smooth="yes"/>
      <point x="119" y="1192" type="line" smooth="yes"/>
      <point x="119" y="1340.0"/>
      <point x="354" y="1514"/>
      <point x="565" y="1514.0" type="qcurve" smooth="yes"/>
      <point x="576" y="1514.0" type="line" smooth="yes"/>
      <point x="800" y="1514"/>
      <point x="1028.0" y="1303.0"/>
      <point x="1028" y="1109.0" type="qcurve" smooth="yes"/>
      <point x="1028" y="1095.0" type="line"/>
      <point x="984.0" y="1095" type="line"/>
      <point x="984.0" y="1109" type="line" smooth="yes"/>
      <point x="984.0" y="1283"/>
      <point x="773" y="1471"/>
      <point x="577.0" y="1471" type="qcurve" smooth="yes"/>
      <point x="562.0" y="1471" type="line" smooth="yes"/>
      <point x="375" y="1471"/>
      <point x="161.0" y="1326.0"/>
      <point x="161.0" y="1188" type="qcurve" smooth="yes"/>
      <point x="161" y="1175" type="line" smooth="yes"/>
      <point x="161" y="1046"/>
      <point x="370" y="895"/>
      <point x="601" y="827" type="qcurve" smooth="yes"/>
      <point x="826" y="761"/>
      <point x="1084" y="577"/>
      <point x="1084" y="408.0" type="qcurve" smooth="yes"/>
      <point x="1084" y="394.0" type="line" smooth="yes"/>
      <point x="1084.0" y="211.0"/>
      <point x="822" y="-15"/>
      <point x="584" y="-15.0" type="qcurve" smooth="yes"/>
      <point x="580" y="-15.0" type="line" smooth="yes"/>
      <point x="315" y="-15"/>
      <point x="79" y="231.0"/>
      <point x="79" y="406.0" type="qcurve" smooth="yes"/>
      <point x="79" y="451.0" type="line"/>
      <point x="119.0" y="451.0" type="line"/>
      <point x="119.0" y="402" type="line" smooth="yes"/>
      <point x="119.0" y="251.0"/>
      <point x="329" y="20"/>
      <point x="580.0" y="20" type="qcurve" smooth="yes"/>
      <point x="589.0" y="20" type="line" smooth="yes"/>
      <point x="810" y="20"/>
      <point x="1044.0" y="243.0"/>
      <point x="1044.0" y="395" type="qcurve" smooth="yes"/>
    </contour>
    <contour>
      <point x="560" y="-100" type="line"/>
      <point x="560" y="803" type="line"/>
      <point x="600" y="803" type="line"/>
      <point x="600" y="-100" type="line"/>
    </contour>
    <contour>
      <point x="560" y="812" type="line"/>
      <point x="560" y="1593" type="line"/>
      <point x="600" y="1593" type="line"/>
      <point x="600" y="812" type="line"/>
    </contour>
  </outline>
</glyph>
<glyph name="percent" format="2">
  <advance width="2016"/>
  <unicode hex="0025"/>
  <outline>
    <contour>
      <point x="472" y="619.0" type="line" smooth="yes"/>
      <point x="327" y="619.0"/>
      <point x="117" y="859.0"/>
      <point x="117" y="1050.0" type="qcurve" smooth="yes"/>
      <point x="117" y="1079.0" type="line" smooth="yes"/>
      <point x="117" y="1270.0"/>
      <point x="325" y="1520.0"/>
      <point x="470" y="1520.0" type="qcurve" smooth="yes"/>
      <point x="474" y="1520.0" type="line" smooth="yes"/>
      <point x="622" y="1520.0"/>
      <point x="838" y="1270.0"/>
      <point x="838" y="1079.0" type="qcurve" smooth="yes"/>
      <point x="838" y="1050.0" type="line" smooth="yes"/>
      <point x="838" y="859.0"/>
      <point x="626" y="619.0"/>
      <point x="477" y="619.0" type="qcurve" smooth="yes"/>
    </contour>
    <contour>
      <point x="474.0" y="659" type="line" smooth="yes"/>
      <point x="623.0" y="659"/>
      <point x="798.0" y="875"/>
      <point x="798.0" y="1050" type="qcurve" smooth="yes"/>
      <point x="798.0" y="1078" type="line" smooth="yes"/>
      <point x="798.0" y="1255"/>
      <point x="627.0" y="1480"/>
      <point x="474.0" y="1480" type="qcurve" smooth="yes"/>
      <point x="469.0" y="1480" type="line" smooth="yes"/>
      <point x="326.0" y="1480"/>
      <point x="157.0" y="1255"/>
      <point x="157.0" y="1078" type="qcurve" smooth="yes"/>
      <point x="157.0" y="1050" type="line" smooth="yes"/>
      <point x="157.0" y="875"/>
      <point x="321.0" y="659"/>
      <point x="469.0" y="659" type="qcurve" smooth="yes"/>
    </contour>
    <contour>
      <point x="1536" y="-21.0" type="line" smooth="yes"/>
      <point x="1391" y="-21.0"/>
      <point x="1181" y="219.0"/>
      <point x="1181" y="410.0" type="qcurve" smooth="yes"/>
      <point x="1181" y="439.0" type="line" smooth="yes"/>
      <point x="1181" y="630.0"/>
      <point x="1389" y="880.0"/>
      <point x="1534" y="880.0" type="qcurve" smooth="yes"/>
      <point x="1538" y="880.0" type="line" smooth="yes"/>
      <point x="1686" y="880.0"/>
      <point x="1902" y="630.0"/>
      <point x="1902" y="439.0" type="qcurve" smooth="yes"/>
      <point x="1902" y="410.0" type="line" smooth="yes"/>
      <point x="1902" y="219.0"/>
      <point x="1690" y="-21.0"/>
      <point x="1541" y="-21.0" type="qcurve" smooth="yes"/>
    </contour>
    <contour>
      <point x="1538.0" y="19" type="line" smooth="yes"/>
      <point x="1687.0" y="19"/>
      <point x="1862.0" y="235"/>
      <point x="1862.0" y="410" type="qcurve" smooth="yes"/>
      <point x="1862.0" y="438" type="line" smooth="yes"/>
      <point x="1862.0" y="615"/>
      <point x="1691.0" y="840"/>
      <point x="1538.0" y="840" type="qcurve" smooth="yes"/>
      <point x="1533.0" y="840" type="line" smooth="yes"/>
      <point x="1390.0" y="840"/>
      <point x="1221.0" y="615"/>
      <point x="1221.0" y="438" type="qcurve" smooth="yes"/>
      <point x="1221.0" y="410" type="line" smooth="yes"/>
      <point x="1221.0" y="235"/>
      <point x="1385.0" y="19"/>
      <point x="1533.0" y="19" type="qcurve" smooth="yes"/>
    </contour>
    <contour>
      <point x="566" y="0" type="line"/>
      <point x="1406" y="1500" type="line"/>
      <point x="1453" y="1500" type="line"/>
      <point x="613" y="0" type="line"/>
    </contour>
  </outline>
</glyph>
<glyph name="quotesingle" format="2">
  <advance width="581"/>
  <unicode hex="0027"/>
  <outline>
    <contour>
      <point x="271" y="962" type="line"/>
      <point x="271" y="1500" type="line"/>
      <point x="311" y="1500" type="line"/>
      <point x="311" y="962" type="line"/>
    </contour>
  </outline>
</glyph>
<glyph name="parenleft" format="2">
  <advance width="692"/>
  <unicode hex="0028"/>
  <outline>
    <contour>
      <point x="582" y="-311" type="line"/>
      <point x="180" y="110"/>
      <point x="180" y="1090"/>
      <point x="577" y="1525" type="qcurve"/>
      <point x="617" y="1505" type="line"/>
      <point x="230" y="1078"/>
      <point x="218" y="136"/>
      <point x="622" y="-291" type="qcurve"/>
    </contour>
  </outline>
</glyph>
<glyph name="plus" format="2">
  <advance width="1500"/>
  <unicode hex="002B"/>
  <outline>
    <contour>
      <point x="1226" y="740" type="line"/>
      <point x="266" y="740" type="line"/>
      <point x="266" y="785" type="line"/>
      <point x="1226" y="785" type="line"/>
    </contour>
    <contour>
      <point x="768.0" y="1242.0" type="line"/>
      <point x="768.0" y="282.0" type="line"/>
      <point x="723.0" y="282.0" type="line"/>
      <point x="723.0" y="1242.0" type="line"/>
    </contour>
  </outline>
</glyph>
<glyph name="comma" format="2">
  <advance width="600"/>
  <unicode hex="002C"/>
  <outline>
    <contour>
      <point x="175" y="-189" type="line"/>
      <point x="316" y="100" type="line" smooth="yes"/>
      <point x="339" y="147"/>
      <point x="376.0" y="207.0"/>
      <point x="395" y="207" type="qcurve" smooth="yes"/>
      <point x="397" y="207.0" type="line" smooth="yes"/>
      <point x="410" y="207.0"/>
      <point x="419" y="164.0"/>
      <point x="392" y="105.0" type="qcurve" smooth="yes"/>
      <point x="387" y="94" type="line" smooth="yes"/>
      <point x="370" y="56"/>
      <point x="274" y="-106"/>
      <point x="216" y="-208" type="qcurve"/>
    </contour>
  </outline>
</glyph>
<glyph name="period" format="2">
  <advance width="600"/>
  <unicode hex="002E"/>
  <outline>
    <contour>
      <point x="300" y="-4.0" type="line" smooth="yes"/>
      <point x="315" y="-4.0"/>
      <point x="334.0" y="36.0"/>
      <point x="334" y="83.0" type="qcurve" smooth="yes"/>
      <point x="334" y="108.0" type="line" smooth="yes"/>
      <point x="334.0" y="159.0"/>
      <point x="317" y="196.0"/>
      <point x="300" y="196.0" type="qcurve" smooth="yes"/>
      <point x="299" y="196.0" type="line" smooth="yes"/>
      <point x="284" y="196.0"/>
      <point x="266.0" y="159.0"/>
      <point x="266.0" y="108.0" type="qcurve" smooth="yes"/>
      <point x="266.0" y="83.0" type="line" smooth="yes"/>
      <point x="266.0" y="32.0"/>
      <point x="283" y="-4.0"/>
      <point x="299" y="-4.0" type="qcurve" smooth="yes"/>
    </contour>
  </outline>
</glyph>
<glyph name="three" format="2">
  <advance width="966"/>
  <unicode hex="0033"/>
  <outline>
    <contour>
      <point x="500" y="817" type="qcurve" smooth="yes"/>
      <point x="340" y="818" type="line"/>
      <point x="340" y="864" type="line"/>
      <point x="513" y="864" type="line" smooth="yes"/>
      <point x="649.0" y="864.0"/>
      <point x="831" y="1027"/>
      <point x="831.0" y="1156" type="qcurve" smooth="yes"/>
      <point x="831.0" y="1184" type="line" smooth="yes"/>
      <point x="831" y="1318"/>
      <point x="641.0" y="1484.0"/>
      <point x="472.0" y="1484" type="qcurve"/>
      <point x="439.0" y="1484" type="line"/>
      <point x="282.0" y="1484.0"/>
      <point x="89" y="1290"/>
      <point x="84.0" y="1171" type="qcurve" smooth="yes"/>
      <point x="82.0" y="1145" type="line"/>
      <point x="41" y="1145.0" type="line"/>
      <point x="43" y="1181.0" type="line" smooth="yes"/>
      <point x="49" y="1311.0"/>
      <point x="250.0" y="1520.0"/>
      <point x="446" y="1520.0" type="qcurve"/>
      <point x="464" y="1520.0" type="line"/>
      <point x="661.0" y="1520.0"/>
      <point x="871.0" y="1339.0"/>
      <point x="871" y="1174.0" type="qcurve" smooth="yes"/>
      <point x="871" y="1167.0" type="line" smooth="yes"/>
      <point x="871.0" y="1013.0"/>
      <point x="710" y="854.0"/>
      <point x="612" y="836.0" type="qcurve"/>
      <point x="728" y="819.0"/>
      <point x="910.0" y="614.0"/>
      <point x="910" y="450.0" type="qcurve" smooth="yes"/>
      <point x="910" y="420.0" type="line" smooth="yes"/>
      <point x="910.0" y="246.0"/>
      <point x="661" y="-10"/>
      <point x="485" y="-10" type="qcurve"/>
      <point x="469" y="-10.0" type="line"/>
      <point x="254.0" y="-10"/>
      <point x="28" y="195.0"/>
      <point x="22" y="352.0" type="qcurve" smooth="yes"/>
      <point x="20" y="408.0" type="line"/>
      <point x="61.0" y="410.0" type="line"/>
      <point x="62.0" y="334" type="line" smooth="yes"/>
      <point x="64.0" y="212"/>
      <point x="292.0" y="28.0"/>
      <point x="458.0" y="28" type="qcurve"/>
      <point x="492.0" y="28" type="line"/>
      <point x="671.0" y="28.0"/>
      <point x="871.0" y="265.0"/>
      <point x="871.0" y="421" type="qcurve" smooth="yes"/>
      <point x="871.0" y="439" type="line" smooth="yes"/>
      <point x="871.0" y="592.0"/>
      <point x="661" y="816"/>
    </contour>
  </outline>
</glyph>
<glyph name="five" format="2">
  <advance width="966"/>
  <unicode hex="0035"/>
  <outline>
    <contour>
      <point x="488" y="958" type="line" smooth="yes"/>
      <point x="668.0" y="958.0"/>
      <point x="919.0" y="728.0"/>
      <point x="919" y="510.0" type="qcurve" smooth="yes"/>
      <point x="919" y="480.0" type="line" smooth="yes"/>
      <point x="919.0" y="259.0"/>
      <point x="676.0" y="-25.0"/>
      <point x="474" y="-25.0" type="qcurve" smooth="yes"/>
      <point x="455" y="-25.0" type="line" smooth="yes"/>
      <point x="259.0" y="-25"/>
      <point x="30" y="195.0"/>
      <point x="24" y="352.0" type="qcurve" smooth="yes"/>
      <point x="22.0" y="408.0" type="line"/>
      <point x="61" y="410.0" type="line"/>
      <point x="61.0" y="356" type="line" smooth="yes"/>
      <point x="61" y="220.0"/>
      <point x="276.0" y="12"/>
      <point x="461" y="12.0" type="qcurve" smooth="yes"/>
      <point x="475" y="12" type="line" smooth="yes"/>
      <point x="664.0" y="12.0"/>
      <point x="884.0" y="275.0"/>
      <point x="884.0" y="481" type="qcurve" smooth="yes"/>
      <point x="884" y="500.0" type="line" smooth="yes"/>
      <point x="884.0" y="706.0"/>
      <point x="657.0" y="919.0"/>
      <point x="495" y="919.0" type="qcurve" smooth="yes"/>
      <point x="475" y="919.0" type="line" smooth="yes"/>
      <point x="354.0" y="919.0"/>
      <point x="192" y="817.0"/>
      <point x="133" y="741.0" type="qcurve"/>
      <point x="102" y="742.0" type="line"/>
      <point x="141" y="1500.0" type="line"/>
      <point x="816" y="1500.0" type="line"/>
      <point x="816" y="1462.0" type="line"/>
      <point x="179" y="1462" type="line"/>
      <point x="146" y="807" type="line"/>
      <point x="171" y="848"/>
      <point x="357.0" y="958.0"/>
      <point x="476" y="958" type="qcurve" smooth="yes"/>
    </contour>
  </outline>
</glyph>
<glyph name="eight" format="2">
  <advance width="1028"/>
  <unicode hex="0038"/>
  <outline>
    <contour>
      <point x="507.0" y="-25" type="line" smooth="yes"/>
      <point x="314.0" y="-25"/>
      <point x="61" y="213"/>
      <point x="61.0" y="390" type="qcurve" smooth="yes"/>
      <point x="61.0" y="419" type="line" smooth="yes"/>
      <point x="61" y="598"/>
      <point x="311.0" y="821.0"/>
      <point x="504.0" y="821" type="qcurve" smooth="yes"/>
      <point x="510.0" y="821" type="line" smooth="yes"/>
      <point x="707.0" y="821.0"/>
      <point x="967" y="598"/>
      <point x="967.0" y="419" type="qcurve" smooth="yes"/>
      <point x="967.0" y="390" type="line" smooth="yes"/>
      <point x="967" y="213"/>
      <point x="701.0" y="-25"/>
      <point x="513.0" y="-25" type="qcurve" smooth="yes"/>
    </contour>
    <contour>
      <point x="516" y="4.0" type="line" smooth="yes"/>
      <point x="695.0" y="4.0"/>
      <point x="928" y="220"/>
      <point x="928.0" y="392.0" type="qcurve" smooth="yes"/>
      <point x="928.0" y="417.0" type="line" smooth="yes"/>
      <point x="928" y="588"/>
      <point x="704" y="785"/>
      <point x="509" y="785.0" type="qcurve" smooth="yes"/>
      <point x="499" y="785.0" type="line" smooth="yes"/>
      <point x="316" y="785"/>
      <point x="100" y="588"/>
      <point x="100" y="417.0" type="qcurve" smooth="yes"/>
      <point x="100" y="392.0" type="line" smooth="yes"/>
      <point x="100" y="220"/>
      <point x="330.0" y="4"/>
      <point x="506" y="4.0" type="qcurve" smooth="yes"/>
    </contour>
    <contour>
      <point x="506.0" y="785" type="line" smooth="yes"/>
      <point x="335.0" y="785.0"/>
      <point x="111.0" y="986"/>
      <point x="111.0" y="1141" type="qcurve" smooth="yes"/>
      <point x="111.0" y="1164" type="line" smooth="yes"/>
      <point x="111.0" y="1320"/>
      <point x="343.0" y="1523"/>
      <point x="504.0" y="1523" type="qcurve" smooth="yes"/>
      <point x="509.0" y="1523" type="line" smooth="yes"/>
      <point x="675.0" y="1523"/>
      <point x="915" y="1320"/>
      <point x="915.0" y="1164" type="qcurve" smooth="yes"/>
      <point x="915.0" y="1141" type="line" smooth="yes"/>
      <point x="915.0" y="986.0"/>
      <point x="687.0" y="785.0"/>
      <point x="512.0" y="785" type="qcurve" smooth="yes"/>
    </contour>
    <contour>
      <point x="508.0" y="821" type="line" smooth="yes"/>
      <point x="677" y="821"/>
      <point x="876.0" y="996"/>
      <point x="876.0" y="1141" type="qcurve" smooth="yes"/>
      <point x="876.0" y="1163" type="line" smooth="yes"/>
      <point x="876.0" y="1307"/>
      <point x="681" y="1484"/>
      <point x="508.0" y="1484" type="qcurve" smooth="yes"/>
      <point x="502.0" y="1484" type="line" smooth="yes"/>
      <point x="341" y="1484"/>
      <point x="151.0" y="1307"/>
      <point x="151.0" y="1163" type="qcurve" smooth="yes"/>
      <point x="151.0" y="1141" type="line" smooth="yes"/>
      <point x="151.0" y="996"/>
      <point x="338" y="821"/>
      <point x="502.0" y="821" type="qcurve" smooth="yes"/>
    </contour>
  </outline>
</glyph>
<glyph name="equal" format="2">
  <advance width="1500"/>
  <unicode hex="003D"/>
  <outline>
    <contour>
      <point x="1226" y="513" type="line"/>
      <point x="266" y="513" type="line"/>
      <point x="266" y="553" type="line"/>
      <point x="1227" y="553" type="line"/>
    </contour>
    <contour>
      <point x="1226" y="905" type="line"/>
      <point x="266" y="905" type="line"/>
      <point x="266" y="945" type="line"/>
      <point x="1226" y="945" type="line"/>
    </contour>
  </outline>
</glyph>
<glyph name="question" format="2">
  <advance width="1041"/>
  <unicode hex="003F"/>
  <outline>
    <contour>
      <point x="521" y="-4.0" type="line" smooth="yes"/>
      <point x="536" y="-4.0"/>
      <point x="555.0" y="36.0"/>
      <point x="555" y="83.0" type="qcurve" smooth="yes"/>
      <point x="555" y="108.0" type="line" smooth="yes"/>
      <point x="555.0" y="159.0"/>
      <point x="538" y="196.0"/>
      <point x="521" y="196.0" type="qcurve" smooth="yes"/>
      <point x="520" y="196.0" type="line" smooth="yes"/>
      <point x="505" y="196.0"/>
      <point x="487.0" y="159.0"/>
      <point x="487.0" y="108.0" type="qcurve" smooth="yes"/>
      <point x="487.0" y="83.0" type="line" smooth="yes"/>
      <point x="487.0" y="32.0"/>
      <point x="504" y="-4.0"/>
      <point x="520" y="-4.0" type="qcurve" smooth="yes"/>
    </contour>
    <contour>
      <point x="531" y="410" type="line"/>
      <point x="491" y="410" type="line"/>
      <point x="489.0" y="779" type="line"/>
      <point x="661.0" y="800"/>
      <point x="894.0" y="967"/>
      <point x="894.0" y="1117" type="qcurve" smooth="yes"/>
      <point x="894.0" y="1123" type="line" smooth="yes"/>
      <point x="894.0" y="1291"/>
      <point x="680.0" y="1483.0"/>
      <point x="522.0" y="1483" type="qcurve" smooth="yes"/>
      <point x="516.0" y="1483" type="line" smooth="yes"/>
      <point x="331.0" y="1483"/>
      <point x="126.0" y="1300"/>
      <point x="131.0" y="1150" type="qcurve" smooth="yes"/>
      <point x="131" y="1120.0" type="line"/>
      <point x="91" y="1120" type="line"/>
      <point x="91" y="1149" type="line" smooth="yes"/>
      <point x="91" y="1326"/>
      <point x="332" y="1523"/>
      <point x="512" y="1523" type="qcurve" smooth="yes"/>
      <point x="518" y="1523" type="line" smooth="yes"/>
      <point x="696" y="1523"/>
      <point x="934" y="1308"/>
      <point x="934.0" y="1126" type="qcurve" smooth="yes"/>
      <point x="934.0" y="1115" type="line" smooth="yes"/>
      <point x="934.0" y="944.0"/>
      <point x="675.0" y="766"/>
      <point x="530.0" y="748" type="qcurve"/>
    </contour>
  </outline>
</glyph>
<glyph name="at" format="2">
  <advance width="1801"/>
  <unicode hex="0040"/>
  <outline>
    <contour>
      <point x="1224" y="739" type="qcurve" smooth="yes"/>
      <point x="1219" y="710" type="line" smooth="yes"/>
      <point x="1184" y="505"/>
      <point x="940" y="301"/>
      <point x="774" y="301" type="qcurve" smooth="yes"/>
      <point x="768" y="301" type="line" smooth="yes"/>
      <point x="589" y="301"/>
      <point x="434" y="584"/>
      <point x="482" y="784" type="qcurve" smooth="yes"/>
      <point x="489" y="813" type="line" smooth="yes"/>
      <point x="532" y="993"/>
      <point x="749" y="1171"/>
      <point x="907" y="1171" type="qcurve" smooth="yes"/>
      <point x="914" y="1171" type="line" smooth="yes"/>
      <point x="1072" y="1171"/>
      <point x="1256" y="925"/>
    </contour>
    <contour>
      <point x="1182" y="723" type="line" smooth="yes"/>
      <point x="1216" y="893"/>
      <point x="1053" y="1129"/>
      <point x="908" y="1129" type="qcurve" smooth="yes"/>
      <point x="902" y="1129" type="line" smooth="yes"/>
      <point x="759" y="1129"/>
      <point x="568" y="969"/>
      <point x="530" y="804" type="qcurve" smooth="yes"/>
      <point x="525" y="782" type="line" smooth="yes"/>
      <point x="479" y="581"/>
      <point x="621.0" y="339"/>
      <point x="771" y="339" type="qcurve" smooth="yes"/>
      <point x="777" y="339" type="line" smooth="yes"/>
      <point x="927" y="339"/>
      <point x="1143" y="528"/>
      <point x="1178" y="703" type="qcurve" smooth="yes"/>
    </contour>
    <contour>
      <point x="1162" y="495" type="qcurve" smooth="yes"/>
      <point x="1272" y="1125" type="line"/>
      <point x="1313" y="1125" type="line"/>
      <point x="1200" y="488" type="line" smooth="yes"/>
      <point x="1189" y="428"/>
      <point x="1257" y="357"/>
      <point x="1330" y="357" type="qcurve" smooth="yes"/>
      <point x="1467" y="357"/>
      <point x="1691" y="638"/>
      <point x="1691" y="824" type="qcurve" smooth="yes"/>
      <point x="1691" y="1128"/>
      <point x="1239" y="1484"/>
      <point x="930" y="1484" type="qcurve" smooth="yes"/>
      <point x="617" y="1484"/>
      <point x="140" y="1041"/>
      <point x="140" y="715" type="qcurve" smooth="yes"/>
      <point x="140" y="337"/>
      <point x="602" y="-62"/>
      <point x="912" y="-62" type="qcurve" smooth="yes"/>
      <point x="1128" y="-62"/>
      <point x="1425" y="72"/>
      <point x="1492" y="148" type="qcurve"/>
      <point x="1524" y="114" type="line"/>
      <point x="1446" y="33"/>
      <point x="1155.0" y="-102.0"/>
      <point x="907" y="-102" type="qcurve" smooth="yes"/>
      <point x="572" y="-102"/>
      <point x="100" y="322"/>
      <point x="100" y="715" type="qcurve" smooth="yes"/>
      <point x="100" y="1077"/>
      <point x="604" y="1524"/>
      <point x="930" y="1524" type="qcurve" smooth="yes"/>
      <point x="1262" y="1524"/>
      <point x="1731" y="1156"/>
      <point x="1731" y="836" type="qcurve" smooth="yes"/>
      <point x="1731" y="603"/>
      <point x="1488" y="319"/>
      <point x="1327" y="319" type="qcurve" smooth="yes"/>
      <point x="1229" y="319"/>
      <point x="1150" y="424"/>
    </contour>
  </outline>
</glyph>
<glyph name="C" format="2">
  <advance width="1445"/>
  <unicode hex="0043"/>
  <outline>
    <contour>
      <point x="772" y="14.0" type="line" smooth="yes"/>
      <point x="1054" y="14.0"/>
      <point x="1330" y="308"/>
      <point x="1339" y="528.0" type="qcurve" smooth="yes"/>
      <point x="1340" y="552.0" type="line"/>
      <point x="1388" y="552.0" type="line"/>
      <point x="1386" y="527.0" type="line" smooth="yes"/>
      <point x="1366" y="276"/>
      <point x="1074" y="-24.0"/>
      <point x="772" y="-24.0" type="qcurve" smooth="yes"/>
      <point x="761" y="-24.0" type="line" smooth="yes"/>
      <point x="461" y="-24.0"/>
      <point x="96" y="381.0"/>
      <point x="96" y="724.0" type="qcurve" smooth="yes"/>
      <point x="96" y="775.0" type="line" smooth="yes"/>
      <point x="96" y="1111.0"/>
      <point x="423" y="1524.0"/>
      <point x="755" y="1524.0" type="qcurve" smooth="yes"/>
      <point x="767" y="1524.0" type="line" smooth="yes"/>
      <point x="1056" y="1524.0"/>
      <point x="1369" y="1251"/>
      <point x="1386" y="979.0" type="qcurve" smooth="yes"/>
      <point x="1388" y="947.0" type="line"/>
      <point x="1340" y="947.0" type="line"/>
      <point x="1339" y="973.0" type="line" smooth="yes"/>
      <point x="1329" y="1233"/>
      <point x="1026" y="1486.0"/>
      <point x="765" y="1486.0" type="qcurve" smooth="yes"/>
      <point x="752" y="1486.0" type="line" smooth="yes"/>
      <point x="445.0" y="1486.0"/>
      <point x="136" y="1087.0"/>
      <point x="136" y="770.0" type="qcurve" smooth="yes"/>
      <point x="136" y="722.0" type="line" smooth="yes"/>
      <point x="136" y="398.0"/>
      <point x="460" y="14.0"/>
      <point x="763" y="14.0" type="qcurve" smooth="yes"/>
    </contour>
  </outline>
</glyph>
<glyph name="D" format="2">
  <advance width="1402"/>
  <unicode hex="0044"/>
  <outline>
    <contour>
      <point x="226" y="0" type="line"/>
      <point x="226" y="1500" type="line"/>
      <point x="266" y="1500" type="line"/>
      <point x="266" y="0" type="line"/>
    </contour>
    <contour>
      <point x="696.0" y="38" type="line" smooth="yes"/>
      <point x="935.0" y="38.0"/>
      <point x="1259" y="420"/>
      <point x="1259.0" y="740" type="qcurve" smooth="yes"/>
      <point x="1259" y="755.0" type="line" smooth="yes"/>
      <point x="1259" y="1077"/>
      <point x="933.0" y="1462.0"/>
      <point x="694" y="1462.0" type="qcurve" smooth="yes"/>
      <point x="248" y="1462.0" type="line"/>
      <point x="248" y="1500" type="line"/>
      <point x="679.0" y="1500" type="line" smooth="yes"/>
      <point x="947.0" y="1500.0"/>
      <point x="1302" y="1107"/>
      <point x="1302.0" y="775" type="qcurve" smooth="yes"/>
      <point x="1302.0" y="724" type="line" smooth="yes"/>
      <point x="1302" y="392"/>
      <point x="953.0" y="0.0"/>
      <point x="675.0" y="0" type="qcurve" smooth="yes"/>
      <point x="248" y="0" type="line"/>
      <point x="248" y="38.0" type="line"/>
    </contour>
  </outline>
</glyph>
<glyph name="G" format="2">
  <advance width="1505"/>
  <unicode hex="0047"/>
  <outline>
    <contour>
      <point x="803" y="15.0" type="line" smooth="yes"/>
      <point x="1079.0" y="15.0"/>
      <point x="1371.0" y="292.0"/>
      <point x="1371.0" y="610" type="qcurve" smooth="yes"/>
      <point x="1371" y="670.0" type="line"/>
      <point x="846" y="670.0" type="line"/>
      <point x="846" y="708.0" type="line"/>
      <point x="1410" y="708.0" type="line"/>
      <point x="1407.0" y="540.0" type="line" smooth="yes"/>
      <point x="1402" y="270"/>
      <point x="1104" y="-25"/>
      <point x="806" y="-25.0" type="qcurve" smooth="yes"/>
      <point x="795" y="-25.0" type="line" smooth="yes"/>
      <point x="468" y="-25"/>
      <point x="96" y="389.0"/>
      <point x="96" y="724.0" type="qcurve" smooth="yes"/>
      <point x="96" y="775.0" type="line" smooth="yes"/>
      <point x="96" y="1131.0"/>
      <point x="477.0" y="1524.0"/>
      <point x="759" y="1524.0" type="qcurve" smooth="yes"/>
      <point x="771" y="1524.0" type="line" smooth="yes"/>
      <point x="1045.0" y="1524.0"/>
      <point x="1357" y="1244"/>
      <point x="1364" y="1018.0" type="qcurve" smooth="yes"/>
      <point x="1365" y="986.0" type="line"/>
      <point x="1316" y="986.0" type="line"/>
      <point x="1316" y="999.0" type="line" smooth="yes"/>
      <point x="1316.0" y="1218"/>
      <point x="1027.0" y="1479.0"/>
      <point x="771" y="1479.0" type="qcurve" smooth="yes"/>
      <point x="760" y="1479.0" type="line" smooth="yes"/>
      <point x="498.0" y="1479.0"/>
      <point x="139" y="1117.0"/>
      <point x="139" y="771.0" type="qcurve" smooth="yes"/>
      <point x="139" y="721.0" type="line" smooth="yes"/>
      <point x="139" y="406.0"/>
      <point x="480.0" y="15"/>
      <point x="796" y="15.0" type="qcurve" smooth="yes"/>
    </contour>
  </outline>
</glyph>
<glyph name="I" format="2">
  <advance width="692"/>
  <unicode hex="0049"/>
  <outline>
    <contour>
      <point x="327" y="0" type="line"/>
      <point x="327" y="1500" type="line"/>
      <point x="367" y="1500" type="line"/>
      <point x="367" y="0" type="line"/>
    </contour>
    <contour>
      <point x="586" y="0" type="line"/>
      <point x="106" y="0" type="line"/>
      <point x="106" y="35" type="line"/>
      <point x="586" y="35" type="line"/>
    </contour>
    <contour>
      <point x="586" y="1465" type="line"/>
      <point x="106" y="1465" type="line"/>
      <point x="106" y="1500" type="line"/>
      <point x="586" y="1500" type="line"/>
    </contour>
  </outline>
</glyph>
<glyph name="N" format="2">
  <advance width="1439"/>
  <unicode hex="004E"/>
  <outline>
    <contour>
      <point x="226" y="0" type="line"/>
      <point x="226" y="1500" type="line"/>
      <point x="266" y="1498" type="line"/>
      <point x="1173" y="85" type="line"/>
      <point x="1173" y="1500" type="line"/>
      <point x="1213" y="1500" type="line"/>
      <point x="1213" y="0" type="line"/>
      <point x="1173" y="0" type="line"/>
      <point x="1173" y="13" type="line"/>
      <point x="266" y="1426" type="line"/>
      <point x="266" y="0" type="line"/>
    </contour>
  </outline>
</glyph>
<glyph name="R" format="2">
  <advance width="1300"/>
  <unicode hex="0052"/>
  <outline>
    <contour>
      <point x="226" y="0" type="line"/>
      <point x="226" y="1500" type="line"/>
      <point x="266" y="1500" type="line"/>
      <point x="266" y="0" type="line"/>
    </contour>
    <contour>
      <point x="690" y="691.0" type="qcurve" smooth="yes"/>
      <point x="247" y="691.0" type="line"/>
      <point x="247.0" y="730" type="line"/>
      <point x="678" y="730" type="line" smooth="yes"/>
      <point x="865.0" y="730.0"/>
      <point x="1078" y="922"/>
      <point x="1078" y="1112.0" type="qcurve" smooth="yes"/>
      <point x="1078" y="1133.0" type="line" smooth="yes"/>
      <point x="1078" y="1294"/>
      <point x="881.0" y="1462.0"/>
      <point x="681" y="1462.0" type="qcurve" smooth="yes"/>
      <point x="247.0" y="1462" type="line"/>
      <point x="247" y="1500.0" type="line"/>
      <point x="687" y="1500.0" type="line" smooth="yes"/>
      <point x="901.0" y="1500.0"/>
      <point x="1119" y="1316"/>
      <point x="1119.0" y="1122.0" type="qcurve" smooth="yes"/>
      <point x="1119.0" y="1107.0" type="line" smooth="yes"/>
      <point x="1119" y="895"/>
      <point x="881.0" y="691.0"/>
    </contour>
    <contour>
      <point x="783" y="725" type="line"/>
      <point x="1290" y="0" type="line"/>
      <point x="1240" y="0" type="line"/>
      <point x="744" y="710" type="line"/>
    </contour>
  </outline>
</glyph>
<glyph name="T" format="2">
  <advance width="1088"/>
  <unicode hex="0054"/>
  <outline>
    <contour>
      <point x="532.0" y="0.0" type="line"/>
      <point x="532.0" y="1480.0" type="line"/>
      <point x="572.0" y="1480.0" type="line"/>
      <point x="572.0" y="0.0" type="line"/>
    </contour>
    <contour>
      <point x="1072" y="1460" type="line"/>
      <point x="16" y="1460" type="line"/>
      <point x="16" y="1500" type="line"/>
      <point x="1072" y="1500" type="line"/>
    </contour>
  </outline>
</glyph>
<glyph name="U" format="2">
  <advance width="1382"/>
  <unicode hex="0055"/>
  <outline>
    <contour>
      <point x="176" y="1500.0" type="line"/>
      <point x="216.0" y="1500.0" type="line"/>
      <point x="216.0" y="561" type="line" smooth="yes"/>
      <point x="216.0" y="269.0"/>
      <point x="495.0" y="13"/>
      <point x="682.0" y="13" type="qcurve" smooth="yes"/>
      <point x="693.0" y="13" type="line" smooth="yes"/>
      <point x="899.0" y="13.0"/>
      <point x="1163.0" y="281.0"/>
      <point x="1163.0" y="561" type="qcurve" smooth="yes"/>
      <point x="1163" y="1500.0" type="line"/>
      <point x="1206" y="1500.0" type="line"/>
      <point x="1202" y="528.0" type="line" smooth="yes"/>
      <point x="1201.0" y="260.0"/>
      <point x="919.0" y="-26.0"/>
      <point x="693" y="-26.0" type="qcurve" smooth="yes"/>
      <point x="685" y="-26.0" type="line" smooth="yes"/>
      <point x="477.0" y="-26"/>
      <point x="176" y="253.0"/>
      <point x="176" y="554.0" type="qcurve" smooth="yes"/>
    </contour>
  </outline>
</glyph>
<glyph name="Y" format="2">
  <advance width="1150"/>
  <unicode hex="0059"/>
  <outline>
    <contour>
      <point x="565" y="500" type="line"/>
      <point x="-20" y="1500" type="line"/>
      <point x="30" y="1500" type="line"/>
      <point x="575" y="567" type="line"/>
      <point x="1127" y="1500" type="line"/>
      <point x="1170" y="1500" type="line"/>
      <point x="583" y="500" type="line"/>
    </contour>
    <contour>
      <point x="554.0" y="0.0" type="line"/>
      <point x="554.0" y="520.0" type="line"/>
      <point x="594.0" y="520.0" type="line"/>
      <point x="594.0" y="0.0" type="line"/>
    </contour>
  </outline>
</glyph>
<glyph name="bracketleft" format="2">
  <advance width="692"/>
  <unicode hex="005B"/>
  <outline>
    <contour>
      <point x="204" y="-280" type="line"/>
      <point x="204" y="1500" type="line"/>
      <point x="244" y="1500" type="line"/>
      <point x="244" y="-280" type="line"/>
    </contour>
    <contour>
      <point x="586" y="-280" type="line"/>
      <point x="229" y="-280" type="line"/>
      <point x="229" y="-242" type="line"/>
      <point x="586" y="-242" type="line"/>
    </contour>
    <contour>
      <point x="586" y="1462" type="line"/>
      <point x="224" y="1462" type="line"/>
      <point x="224" y="1500" type="line"/>
      <point x="586" y="1500" type="line"/>
    </contour>
  </outline>
</glyph>
<glyph name="backslash" format="2">
  <advance width="624"/>
  <unicode hex="005C"/>
  <outline>
    <contour>
      <point x="662" y="0" type="line"/>
      <point x="618" y="0" type="line"/>
      <point x="-22" y="1500" type="line"/>
      <point x="22" y="1500" type="line"/>
    </contour>
  </outline>
</glyph>
<glyph name="bracketright" format="2">
  <advance width="692"/>
  <unicode hex="005D"/>
  <outline>
    <contour>
      <point x="488" y="-280" type="line"/>
      <point x="448" y="-280" type="line"/>
      <point x="448" y="1500" type="line"/>
      <point x="488" y="1500" type="line"/>
    </contour>
    <contour>
      <point x="106" y="-280" type="line"/>
      <point x="106" y="-242" type="line"/>
      <point x="463" y="-242" type="line"/>
      <point x="463" y="-280" type="line"/>
    </contour>
    <contour>
      <point x="106" y="1462" type="line"/>
      <point x="106" y="1500" type="line"/>
      <point x="468" y="1500" type="line"/>
      <point x="468" y="1462" type="line"/>
    </contour>
  </outline>
</glyph>
<glyph name="asciicircum" format="2">
  <advance width="1500"/>
  <unicode hex="005E"/>
  <outline>
    <contour>
      <point x="782.0" y="1513.0" type="line"/>
      <point x="1258.0" y="833.0" type="line"/>
      <point x="1209.0" y="833.0" type="line"/>
      <point x="753.0" y="1485.0" type="line"/>
      <point x="293.0" y="833.0" type="line"/>
      <point x="242.0" y="833.0" type="line"/>
      <point x="722.0" y="1513.0" type="line"/>
    </contour>
  </outline>
</glyph>
<glyph name="f" format="2">
  <advance width="660"/>
  <unicode hex="0066"/>
  <outline>
    <contour>
      <point x="646" y="963" type="line"/>
      <point x="26" y="963" type="line"/>
      <point x="26" y="1000" type="line"/>
      <point x="646" y="1000" type="line"/>
    </contour>
    <contour>
      <point x="347" y="1294" type="qcurve" smooth="yes"/>
      <point x="347.0" y="0.0" type="line"/>
      <point x="307.0" y="0.0" type="line"/>
      <point x="307" y="1307" type="line" smooth="yes"/>
      <point x="307.0" y="1427.0"/>
      <point x="437" y="1553"/>
      <point x="526" y="1553.0" type="qcurve" smooth="yes"/>
      <point x="601.0" y="1553.0"/>
      <point x="686.0" y="1526.0"/>
      <point x="704" y="1519" type="qcurve"/>
      <point x="696" y="1466" type="line"/>
      <point x="679.0" y="1474.0"/>
      <point x="589" y="1504"/>
      <point x="523" y="1504" type="qcurve" smooth="yes"/>
      <point x="447" y="1504"/>
      <point x="347.0" y="1401.0"/>
    </contour>
  </outline>
</glyph>
<glyph name="g" format="2">
  <advance width="1185"/>
  <unicode hex="0067"/>
  <outline>
    <contour>
      <point x="1005" y="519" type="qcurve" smooth="yes"/>
      <point x="1005" y="484" type="line" smooth="yes"/>
      <point x="1005.0" y="238.0"/>
      <point x="744" y="-25"/>
      <point x="555" y="-25" type="qcurve" smooth="yes"/>
      <point x="548" y="-25" type="line" smooth="yes"/>
      <point x="340" y="-25"/>
      <point x="80" y="258.0"/>
      <point x="80" y="484" type="qcurve" smooth="yes"/>
      <point x="80" y="519" type="line" smooth="yes"/>
      <point x="80" y="745"/>
      <point x="344" y="1040"/>
      <point x="552" y="1040" type="qcurve" smooth="yes"/>
      <point x="559" y="1040" type="line" smooth="yes"/>
      <point x="748.0" y="1040.0"/>
      <point x="1005.0" y="795.0"/>
    </contour>
    <contour>
      <point x="977.0" y="518" type="line" smooth="yes"/>
      <point x="977.0" y="784.0"/>
      <point x="726" y="1003"/>
      <point x="554.0" y="1003" type="qcurve" smooth="yes"/>
      <point x="545.0" y="1003" type="line" smooth="yes"/>
      <point x="359" y="1003"/>
      <point x="121.0" y="732"/>
      <point x="121.0" y="518" type="qcurve" smooth="yes"/>
      <point x="121.0" y="485" type="line" smooth="yes"/>
      <point x="121.0" y="271.0"/>
      <point x="371" y="9"/>
      <point x="543.0" y="9" type="qcurve" smooth="yes"/>
      <point x="552.0" y="9" type="line" smooth="yes"/>
      <point x="738" y="9"/>
      <point x="977.0" y="260.0"/>
      <point x="977.0" y="485" type="qcurve" smooth="yes"/>
    </contour>
    <contour>
      <point x="361" y="-442" type="line"/>
      <point x="388" y="-447"/>
      <point x="480" y="-460"/>
      <point x="515" y="-460" type="qcurve" smooth="yes"/>
      <point x="728.0" y="-460.0"/>
      <point x="975.0" y="-218.0"/>
      <point x="975.0" y="-2.0" type="qcurve" smooth="yes"/>
      <point x="975.0" y="1000.0" type="line"/>
      <point x="1015.0" y="1000.0" type="line"/>
      <point x="1015.0" y="-40.0" type="line" smooth="yes"/>
      <point x="1015.0" y="-236.0"/>
      <point x="756" y="-500"/>
      <point x="503" y="-500" type="qcurve" smooth="yes"/>
      <point x="474" y="-500"/>
      <point x="397" y="-491"/>
      <point x="371" y="-484" type="qcurve"/>
    </contour>
  </outline>
</glyph>
<glyph name="s" format="2">
  <advance width="973"/>
  <unicode hex="0073"/>
  <outline>
    <contour>
      <point x="868.0" y="278" type="line" smooth="yes"/>
      <point x="868.0" y="381.0"/>
      <point x="709.0" y="474"/>
      <point x="488.0" y="521" type="qcurve" smooth="yes"/>
      <point x="264" y="569"/>
      <point x="107.0" y="666"/>
      <point x="107.0" y="783.0" type="qcurve" smooth="yes"/>
      <point x="107.0" y="794.0" type="line" smooth="yes"/>
      <point x="107.0" y="910"/>
      <point x="300.0" y="1040.0"/>
      <point x="475.0" y="1040.0" type="qcurve" smooth="yes"/>
      <point x="484.0" y="1040.0" type="line" smooth="yes"/>
      <point x="659.0" y="1040.0"/>
      <point x="848" y="893"/>
      <point x="853.0" y="774.0" type="qcurve" smooth="yes"/>
      <point x="856.0" y="728.0" type="line"/>
      <point x="817.0" y="728.0" type="line"/>
      <point x="817.0" y="750.0" type="line" smooth="yes"/>
      <point x="817.0" y="862"/>
      <point x="642" y="1004"/>
      <point x="481.0" y="1004.0" type="qcurve" smooth="yes"/>
      <point x="473.0" y="1004.0" type="line" smooth="yes"/>
      <point x="303" y="1004"/>
      <point x="144" y="878"/>
      <point x="144.0" y="790.0" type="qcurve" smooth="yes"/>
      <point x="144.0" y="782.0" type="line" smooth="yes"/>
      <point x="144" y="691"/>
      <point x="287.0" y="604"/>
      <point x="499.0" y="559.0" type="qcurve" smooth="yes"/>
      <point x="716.0" y="513"/>
      <point x="903.0" y="406"/>
      <point x="903.0" y="280.0" type="qcurve" smooth="yes"/>
      <point x="903.0" y="269.0" type="line" smooth="yes"/>
      <point x="903.0" y="143"/>
      <point x="696.0" y="-25"/>
      <point x="486.0" y="-25" type="qcurve" smooth="yes"/>
      <point x="480.0" y="-25.0" type="line" smooth="yes"/>
      <point x="278.0" y="-25"/>
      <point x="81.0" y="142"/>
      <point x="76.0" y="278" type="qcurve" smooth="yes"/>
      <point x="75.0" y="304.0" type="line"/>
      <point x="113.0" y="304.0" type="line"/>
      <point x="114.0" y="285" type="line" smooth="yes"/>
      <point x="122" y="138"/>
      <point x="324" y="11.0"/>
      <point x="482.0" y="11.0" type="qcurve" smooth="yes"/>
      <point x="484.0" y="11" type="line" smooth="yes"/>
      <point x="673.0" y="11.0"/>
      <point x="868" y="158"/>
      <point x="868.0" y="271" type="qcurve" smooth="yes"/>
    </contour>
  </outline>
</glyph>
<glyph name="t" format="2">
  <advance width="710"/>
  <unicode hex="0074"/>
  <outline>
    <contour>
      <point x="653" y="962" type="line"/>
      <point x="56" y="962" type="line"/>
      <point x="56" y="1000" type="line"/>
      <point x="653" y="1000" type="line"/>
    </contour>
    <contour>
      <point x="277.0" y="328" type="line" smooth="yes"/>
      <point x="277.0" y="177.0"/>
      <point x="391.0" y="19.0"/>
      <point x="496.0" y="19" type="qcurve" smooth="yes"/>
      <point x="569" y="19"/>
      <point x="654.0" y="45"/>
      <point x="679.0" y="60" type="qcurve"/>
      <point x="686.0" y="23" type="line"/>
      <point x="663.0" y="9"/>
      <point x="553.0" y="-18"/>
      <point x="489" y="-18" type="qcurve"/>
      <point x="375.0" y="-18"/>
      <point x="237" y="158.0"/>
      <point x="237.0" y="330" type="qcurve" smooth="yes"/>
      <point x="237.0" y="1253.0" type="line"/>
      <point x="277.0" y="1253.0" type="line"/>
    </contour>
  </outline>
</glyph>
<glyph name="v" format="2">
  <advance width="936"/>
  <unicode hex="0076"/>
  <outline>
    <contour>
      <point x="436" y="0" type="line"/>
      <point x="30" y="1000" type="line"/>
      <point x="74.0" y="1000.0" type="line"/>
      <point x="466.0" y="33" type="line"/>
      <point x="865.0" y="1000.0" type="line"/>
      <point x="906" y="1000" type="line"/>
      <point x="494" y="0" type="line"/>
    </contour>
  </outline>
</glyph>
<glyph name="z" format="2">
  <advance width="864"/>
  <unicode hex="007A"/>
  <outline>
    <contour>
      <point x="804" y="0" type="line"/>
      <point x="64" y="0" type="line"/>
      <point x="59" y="47" type="line"/>
      <point x="736" y="963" type="line"/>
      <point x="82" y="963" type="line"/>
      <point x="82" y="1000" type="line"/>
      <point x="784" y="1000" type="line"/>
      <point x="784" y="963" type="line"/>
      <point x="100" y="37" type="line"/>
      <point x="804" y="37" type="line"/>
    </contour>
  </outline>
</glyph>
<glyph name="braceleft" format="2">
  <advance width="692"/>
  <unicode hex="007B"/>
  <outline>
    <contour>
      <point x="104" y="581" type="line"/>
      <point x="249" y="581"/>
      <point x="356" y="505"/>
      <point x="356" y="445" type="qcurve" smooth="yes"/>
      <point x="356" y="415"/>
      <point x="306" y="321"/>
      <point x="275" y="278" type="qcurve" smooth="yes"/>
      <point x="239" y="229"/>
      <point x="187" y="134"/>
      <point x="187.0" y="47.0" type="qcurve" smooth="yes"/>
      <point x="187" y="-53"/>
      <point x="367" y="-261"/>
      <point x="529" y="-304" type="qcurve"/>
      <point x="542" y="-270" type="line"/>
      <point x="402" y="-233"/>
      <point x="227" y="-37"/>
      <point x="227.0" y="36" type="qcurve" smooth="yes"/>
      <point x="227" y="110"/>
      <point x="267" y="194"/>
      <point x="300" y="241" type="qcurve" smooth="yes"/>
      <point x="335" y="290"/>
      <point x="398" y="386"/>
      <point x="398.0" y="448" type="qcurve" smooth="yes"/>
      <point x="398" y="496"/>
      <point x="322" y="580"/>
      <point x="245" y="601" type="qcurve"/>
      <point x="323" y="624"/>
      <point x="398" y="726"/>
      <point x="398.0" y="783" type="qcurve" smooth="yes"/>
      <point x="398" y="836"/>
      <point x="340" y="930"/>
      <point x="307" y="979" type="qcurve" smooth="yes"/>
      <point x="278" y="1021"/>
      <point x="228" y="1112"/>
      <point x="228.0" y="1171.0" type="qcurve" smooth="yes"/>
      <point x="228" y="1244"/>
      <point x="413" y="1427"/>
      <point x="538" y="1474" type="qcurve"/>
      <point x="529" y="1526" type="line"/>
      <point x="376" y="1456"/>
      <point x="186" y="1263"/>
      <point x="186.0" y="1168.0" type="qcurve" smooth="yes"/>
      <point x="186" y="1100"/>
      <point x="247" y="993"/>
      <point x="279" y="949" type="qcurve" smooth="yes"/>
      <point x="310" y="907"/>
      <point x="356" y="817"/>
      <point x="356.0" y="773" type="qcurve" smooth="yes"/>
      <point x="356" y="710"/>
      <point x="226" y="621"/>
      <point x="104" y="621" type="qcurve"/>
    </contour>
  </outline>
</glyph>
<glyph name="braceright" format="2">
  <advance width="692"/>
  <unicode hex="007D"/>
  <outline>
    <contour>
      <point x="588" y="581" type="qcurve"/>
      <point x="588" y="621" type="line"/>
      <point x="466" y="621"/>
      <point x="336" y="710"/>
      <point x="336.0" y="773.0" type="qcurve" smooth="yes"/>
      <point x="336" y="817"/>
      <point x="382" y="907"/>
      <point x="413" y="949" type="qcurve" smooth="yes"/>
      <point x="445" y="993"/>
      <point x="506" y="1100"/>
      <point x="506.0" y="1168.0" type="qcurve" smooth="yes"/>
      <point x="506" y="1263"/>
      <point x="316" y="1456"/>
      <point x="163" y="1526" type="qcurve"/>
      <point x="154" y="1474" type="line"/>
      <point x="279" y="1427"/>
      <point x="464" y="1244"/>
      <point x="464.0" y="1171.0" type="qcurve" smooth="yes"/>
      <point x="464" y="1112"/>
      <point x="414" y="1021"/>
      <point x="385" y="979" type="qcurve" smooth="yes"/>
      <point x="352" y="930"/>
      <point x="294" y="836"/>
      <point x="294.0" y="783.0" type="qcurve" smooth="yes"/>
      <point x="294" y="726"/>
      <point x="369" y="624"/>
      <point x="447" y="601" type="qcurve"/>
      <point x="370" y="580"/>
      <point x="294" y="496"/>
      <point x="294.0" y="448.0" type="qcurve" smooth="yes"/>
      <point x="294" y="386"/>
      <point x="357" y="290"/>
      <point x="392" y="241" type="qcurve" smooth="yes"/>
      <point x="425" y="194"/>
      <point x="465" y="110"/>
      <point x="465.0" y="36.0" type="qcurve" smooth="yes"/>
      <point x="465" y="-37"/>
      <point x="290" y="-233"/>
      <point x="150" y="-270" type="qcurve"/>
      <point x="163" y="-304" type="line"/>
      <point x="325" y="-261"/>
      <point x="505" y="-53"/>
      <point x="505.0" y="47.0" type="qcurve" smooth="yes"/>
      <point x="505" y="134"/>
      <point x="453" y="229"/>
      <point x="417" y="278" type="qcurve" smooth="yes"/>
      <point x="386" y="321"/>
      <point x="336" y="415"/>
      <point x="336" y="445" type="qcurve" smooth="yes"/>
      <point x="336" y="505"/>
      <point x="443" y="581"/>
    </contour>
  </outline>
</glyph>
<glyph name="asciitilde" format="2">
  <advance width="1000"/>
  <unicode hex="007E"/>
  <outline>
    <contour>
      <point x="522" y="813.0" type="qcurve" smooth="yes"/>
      <point x="475" y="851.0"/>
      <point x="388" y="902.0"/>
      <point x="318" y="902.0" type="qcurve" smooth="yes"/>
      <point x="236" y="902.0"/>
      <point x="121" y="815.0"/>
      <point x="99" y="765.0" type="qcurve"/>
      <point x="136" y="748.0" type="line"/>
      <point x="151" y="781.0"/>
      <point x="249" y="860"/>
      <point x="300" y="860.0" type="qcurve"/>
      <point x="351.0" y="860.0"/>
      <point x="419" y="826"/>
      <point x="462" y="790.0" type="qcurve" smooth="yes"/>
      <point x="502" y="757"/>
      <point x="617" y="696.0"/>
      <point x="691" y="696.0" type="qcurve" smooth="yes"/>
      <point x="773" y="696.0"/>
      <point x="882" y="792.0"/>
      <point x="897" y="831.0" type="qcurve"/>
      <point x="859" y="846.0" type="line"/>
      <point x="843" y="811.0"/>
      <point x="759" y="738.0"/>
      <point x="698" y="738.0" type="qcurve" smooth="yes"/>
      <point x="648" y="738"/>
      <point x="571" y="773"/>
    </contour>
  </outline>
</glyph>
